<svg width="35" height="34" viewBox="0 0 35 34" fill="none" xmlns="http://www.w3.org/2000/svg">
<path d="M29.6165 23.7735C26.7079 23.3285 26.4888 22.9035 26.4888 22.9035C27.0865 19.311 25.2337 14.7621 22.199 12.2985C18.1681 9.02463 12.0322 11.402 7.25755 6.4215C6.14192 5.25939 6.7927 19.457 12.7693 24.836C17.1388 28.7672 22.2853 27.5586 23.6997 26.9145C24.9814 26.3301 25.8779 25.261 25.8779 25.261C28.2087 25.9781 29.3642 25.9383 29.3642 25.9383C30.181 26.0379 30.5927 23.9195 29.6165 23.7735ZM24.2908 24.0125C16.6341 21.7481 10.8767 13.7992 10.8767 13.7992C10.8767 13.7992 15.9302 19.7625 24.8353 22.6645C24.8486 23.116 24.5829 23.7602 24.2908 24.0125Z" fill="#174476"/>
</svg>
