<svg width="27" height="28" viewBox="0 0 27 28" fill="none" xmlns="http://www.w3.org/2000/svg">
<path d="M5.5 26.3333H3.5C2.39543 26.3333 1.5 25.4379 1.5 24.3333V7.79629C1.5 7.00768 1.96341 6.29269 2.68327 5.97065L12.6833 1.49696C13.2029 1.26447 13.7971 1.26447 14.3167 1.49696L24.3167 5.97065C25.0366 6.29269 25.5 7.00768 25.5 7.79629V24.3333C25.5 25.4379 24.6046 26.3333 23.5 26.3333H21.5M5.5 26.3333H21.5M5.5 26.3333V20.6667M21.5 26.3333V20.6667M5.5 20.6667V15M5.5 20.6667H21.5M21.5 20.6667V15M5.5 15V11.3333C5.5 10.2288 6.39543 9.33334 7.5 9.33334H19.5C20.6046 9.33334 21.5 10.2288 21.5 11.3333V15M5.5 15H21.5" stroke="#174476" stroke-width="2" stroke-linecap="round" stroke-linejoin="round"/>
</svg>
