<svg width="33" height="32" viewBox="0 0 33 32" fill="none" xmlns="http://www.w3.org/2000/svg">
    <g clip-path="url(#clip0_982_44)">
    <path d="M29.33 23.17L23.5 17.33V13C23.5008 12.8684 23.4755 12.7379 23.4258 12.6161C23.376 12.4943 23.3027 12.3834 23.21 12.29L13.21 2.29C13.117 2.19627 13.0064 2.12188 12.8846 2.07111C12.7627 2.02034 12.632 1.9942 12.5 1.9942C12.368 1.9942 12.2373 2.02034 12.1154 2.07111C11.9936 2.12188 11.883 2.19627 11.79 2.29L2.79 11.29C2.69627 11.383 2.62188 11.4936 2.57111 11.6154C2.52034 11.7373 2.4942 11.868 2.4942 12C2.4942 12.132 2.52034 12.2627 2.57111 12.3846C2.62188 12.5064 2.69627 12.617 2.79 12.71L12.79 22.71C12.8834 22.8027 12.9943 22.876 13.1161 22.9258C13.2379 22.9755 13.3684 23.0008 13.5 23H17.84L23.67 28.84C24.4206 29.5906 25.4385 30.0122 26.5 30.0122C27.5615 30.0122 28.5794 29.5906 29.33 28.84C30.0806 28.0894 30.5022 27.0715 30.5022 26.01C30.5022 24.9485 30.0806 23.9306 29.33 23.18V23.17ZM6.5 10.41L8.79 12.71L10.21 11.29L7.91 9L9.5 7.41L13.79 11.71L15.21 10.29L10.91 6L12.5 4.41L19.09 11L11.5 18.59L4.91 12L6.5 10.41ZM27.91 27.41C27.5353 27.7825 27.0284 27.9916 26.5 27.9916C25.9716 27.9916 25.4647 27.7825 25.09 27.41L18.96 21.29C18.7469 21.1435 18.5048 21.0445 18.25 21H13.91L12.91 20L20.5 12.41L21.5 13.41V17.75C21.5011 18.0123 21.6053 18.2637 21.79 18.45L27.91 24.59C28.2825 24.9647 28.4916 25.4716 28.4916 26C28.4916 26.5284 28.2825 27.0353 27.91 27.41Z" fill="#174476"/>
    </g>
    <defs>
    <clipPath id="clip0_982_44">
    <rect width="32" height="32" fill="white" transform="translate(0.5)"/>
    </clipPath>
    </defs>
</svg>
