<svg width="28" height="27" viewBox="0 0 28 27" fill="none" xmlns="http://www.w3.org/2000/svg">
<g clip-path="url(#clip0_982_87)">
<path d="M9.81501 0.605813C9.86643 0.430867 9.97314 0.277288 10.1192 0.168075C10.2652 0.058862 10.4427 -0.000106627 10.625 1.4474e-07H17.375C17.5086 0.000101577 17.6403 0.0319376 17.7592 0.0928874C17.8781 0.153837 17.9809 0.242158 18.059 0.350578C18.1371 0.458999 18.1883 0.584419 18.2085 0.716513C18.2286 0.848608 18.2171 0.983599 18.1749 1.11038L15.1711 10.125H21.5938C21.7518 10.1249 21.9066 10.1692 22.0407 10.2527C22.1748 10.3363 22.2827 10.4559 22.3522 10.5978C22.4216 10.7397 22.4499 10.8983 22.4336 11.0555C22.4174 11.2126 22.3573 11.3621 22.2603 11.4868L10.4478 26.6743C10.3268 26.8306 10.1547 26.9395 9.96165 26.9819C9.76856 27.0244 9.5667 26.9976 9.3913 26.9064C9.21591 26.8152 9.07811 26.6653 9.00195 26.4829C8.9258 26.3004 8.91613 26.097 8.97463 25.9082L12.0138 16.0312H6.40626C6.27508 16.0313 6.14569 16.0008 6.02836 15.9421C5.91104 15.8835 5.80901 15.7982 5.73038 15.6932C5.65175 15.5882 5.59869 15.4664 5.57541 15.3373C5.55213 15.2082 5.55926 15.0754 5.59626 14.9496L9.81501 0.605813Z" fill="#174476"/>
</g>
<defs>
<clipPath id="clip0_982_87">
<rect width="27" height="27" fill="white" transform="translate(0.5)"/>
</clipPath>
</defs>
</svg>
